<svg width="220" height="44" viewBox="0 0 220 44" fill="none" xmlns="http://www.w3.org/2000/svg">
<path d="M1.66667 14.5556H19.1667C20.963 14.5556 22.3333 15.037 23.2778 16C24.2407 16.9444 24.7222 18.3148 24.7222 20.1111V28.4444C24.7222 30.2407 24.2407 31.6204 23.2778 32.5833C22.3333 33.5278 20.963 34 19.1667 34H1.66667V14.5556ZM18.8889 30.1111C19.4259 30.1111 19.8333 29.9722 20.1111 29.6944C20.4074 29.3981 20.5556 28.9815 20.5556 28.4444V20.1111C20.5556 19.5741 20.4074 19.1667 20.1111 18.8889C19.8333 18.5926 19.4259 18.4444 18.8889 18.4444H5.83333V30.1111H18.8889ZM52.3611 34H47.6389L45.1944 29.6944H32.1389L29.7222 34H25.1389L36.1111 14.5556H41.25L52.3611 34ZM43.1667 26.0833L38.6111 18.0556L34.1389 26.0833H43.1667ZM59.4347 14.5556L72.2125 29.1389V14.5556H76.3791V34H71.1013L58.3236 19.4167V34H54.1569V14.5556H59.4347ZM83.8851 14.5556V34H79.7184V14.5556H83.8851ZM91.3802 14.5556V34H87.2135V14.5556H91.3802ZM98.8753 14.5556V30.1111H113.598V34H94.7087V14.5556H98.8753ZM119.838 30.1111V34H115.949V30.1111H119.838Z" fill="black"/>
<mask id="path-2-inside-1_0_15" fill="white">
<path d="M132 0H220V44H132V0Z"/>
</mask>
<path d="M132 0H220V44H132V0Z" fill="#FF370C" fill-opacity="0.15"/>
<path d="M220 0H219V44H220H221V0H220ZM132 44H133V0H132H131V44H132Z" fill="#FF370C" mask="url(#path-2-inside-1_0_15)"/>
<path d="M140.667 14.5556H158.167C159.963 14.5556 161.333 15.037 162.278 16C163.241 16.9444 163.722 18.3148 163.722 20.1111V28.4444C163.722 30.2407 163.241 31.6204 162.278 32.5833C161.333 33.5278 159.963 34 158.167 34H140.667V14.5556ZM157.889 30.1111C158.426 30.1111 158.833 29.9722 159.111 29.6944C159.407 29.3981 159.556 28.9815 159.556 28.4444V20.1111C159.556 19.5741 159.407 19.1667 159.111 18.8889C158.833 18.5926 158.426 18.4444 157.889 18.4444H144.833V30.1111H157.889ZM186.775 14.5556V18.4444H170.663V22.3333H186.219V26.2222H170.663V30.1111H186.775V34H166.497V14.5556H186.775ZM187.894 14.5556H192.477L200.505 29.7778L208.449 14.5556H212.894L202.755 34H198.172L187.894 14.5556Z" fill="#FF370C"/>
</svg>
